<svg width="24" height="25" viewBox="0 0 24 25" fill="none" xmlns="http://www.w3.org/2000/svg">
<path d="M15.5799 12.1935C15.5799 14.1735 13.9799 15.7735 11.9999 15.7735C10.0199 15.7735 8.41992 14.1735 8.41992 12.1935C8.41992 10.2135 10.0199 8.61354 11.9999 8.61354C13.9799 8.61354 15.5799 10.2135 15.5799 12.1935Z" stroke="#1F1F1E" stroke-width="1.5" stroke-linecap="round" stroke-linejoin="round"/>
<path d="M12.0001 20.4635C15.5301 20.4635 18.8201 18.3835 21.1101 14.7835C22.0101 13.3735 22.0101 11.0035 21.1101 9.59354C18.8201 5.99354 15.5301 3.91354 12.0001 3.91354C8.47009 3.91354 5.18009 5.99354 2.89009 9.59354C1.99009 11.0035 1.99009 13.3735 2.89009 14.7835C5.18009 18.3835 8.47009 20.4635 12.0001 20.4635Z" stroke="#1F1F1E" stroke-width="1.5" stroke-linecap="round" stroke-linejoin="round"/>
</svg>
